<svg width="206" height="40" viewBox="0 0 206 40" fill="none" xmlns="http://www.w3.org/2000/svg">
<g clip-path="url(#clip0_0_40)">
<path d="M15.1683 39.4845V26.1845H11.045V20.0729H15.1683V17.4395C15.1683 10.6312 18.2483 7.47621 24.9317 7.47621C25.6 7.47621 26.5233 7.54621 27.3783 7.64788C28.0187 7.71378 28.654 7.82235 29.28 7.97288V13.5145C28.9181 13.4808 28.5551 13.4608 28.1917 13.4545C27.7845 13.444 27.3773 13.439 26.97 13.4395C25.7917 13.4395 24.8717 13.5995 24.1783 13.9545C23.7122 14.1884 23.3204 14.5473 23.0467 14.9912C22.6167 15.6912 22.4233 16.6495 22.4233 17.9112V20.0729H28.955L28.3117 23.5779L27.8333 26.1845H22.4233V39.9262C32.3267 38.7295 40 30.2979 40 20.0729C40 9.02788 31.045 0.072876 20 0.072876C8.955 0.072876 0 9.02788 0 20.0729C0 29.4529 6.45667 37.3229 15.1683 39.4845Z" fill="#212121"/>
</g>
<g clip-path="url(#clip1_0_40)">
<path d="M94.6399 0.140028C92.5119 0.240361 91.0587 0.580028 89.7882 1.07903C88.4736 1.59153 87.3591 2.27903 86.2502 3.39186C85.1416 4.50469 84.4586 5.61986 83.9499 6.93686C83.4576 8.20986 83.1239 9.66436 83.0299 11.7935C82.9359 13.9227 82.9151 14.6072 82.9256 20.0385C82.9359 25.4695 82.9599 26.1504 83.0631 28.284C83.1647 30.4115 83.5031 31.8644 84.0022 33.1352C84.5156 34.45 85.2022 35.564 86.3156 36.6732C87.4287 37.7824 88.5431 38.4637 89.8631 38.9732C91.1351 39.4649 92.5899 39.8 94.7187 39.8932C96.8476 39.9865 97.5327 40.0082 102.962 39.9977C108.392 39.9874 109.076 39.9632 111.209 39.862C113.342 39.7609 114.787 39.42 116.058 38.9232C117.373 38.4089 118.488 37.7232 119.596 36.6097C120.705 35.496 121.387 34.38 121.896 33.0624C122.388 31.7904 122.723 30.3357 122.816 28.2084C122.909 26.0735 122.931 25.392 122.921 19.9617C122.91 14.5312 122.886 13.8504 122.784 11.7175C122.683 9.58469 122.344 8.13636 121.846 6.86469C121.332 5.54986 120.646 4.43669 119.533 3.32669C118.42 2.21669 117.303 1.53469 115.986 1.02753C114.713 0.535028 113.259 0.199528 111.13 0.107528C109.002 0.015528 108.316 -0.00830535 102.885 0.00236132C97.4531 0.0126946 96.7731 0.036028 94.6399 0.140028ZM94.8736 36.2952C92.9236 36.2104 91.8647 35.8864 91.1591 35.6152C90.2247 35.2552 89.5591 34.82 88.8559 34.1235C88.1526 33.4272 87.7207 32.7592 87.3559 31.8269C87.0819 31.1212 86.7519 30.0635 86.6607 28.1135C86.5616 26.006 86.5407 25.3732 86.5291 20.0335C86.5174 14.694 86.5379 14.0619 86.6302 11.9535C86.7136 10.0052 87.0396 8.94519 87.3102 8.23986C87.6702 7.30436 88.1039 6.63986 88.8019 5.93719C89.4999 5.23436 90.1659 4.80153 91.0991 4.43669C91.8041 4.16153 92.8616 3.83436 94.8107 3.74153C96.9199 3.64153 97.5519 3.62153 102.891 3.60986C108.23 3.59819 108.863 3.61819 110.973 3.71119C112.922 3.79586 113.982 4.11869 114.687 4.39119C115.621 4.75119 116.287 5.18353 116.989 5.88286C117.692 6.58186 118.125 7.24553 118.49 8.18069C118.766 8.88353 119.093 9.94069 119.185 11.8912C119.285 14.0004 119.308 14.6329 119.318 19.9712C119.327 25.3095 119.308 25.9435 119.216 28.0512C119.131 30.0012 118.808 31.0604 118.536 31.7669C118.176 32.7009 117.742 33.3669 117.044 34.0692C116.345 34.7717 115.68 35.2044 114.746 35.5692C114.042 35.844 112.984 36.172 111.036 36.2649C108.927 36.364 108.295 36.3849 102.954 36.3965C97.6131 36.4082 96.9827 36.3865 94.8736 36.2952ZM111.178 9.31069C111.179 9.78541 111.32 10.2492 111.585 10.6435C111.849 11.0377 112.225 11.3447 112.664 11.5256C113.102 11.7065 113.585 11.7532 114.051 11.6597C114.516 11.5663 114.943 11.3369 115.278 11.0006C115.613 10.6643 115.841 10.2361 115.933 9.77037C116.025 9.3046 115.976 8.82208 115.794 8.38386C115.611 7.94564 115.303 7.5714 114.907 7.30846C114.512 7.04552 114.048 6.90571 113.573 6.90669C112.937 6.90802 112.327 7.16201 111.878 7.61282C111.429 8.06363 111.177 8.67435 111.178 9.31069ZM92.6539 20.02C92.6651 25.692 97.2716 30.2795 102.942 30.2689C108.613 30.258 113.204 25.652 113.193 19.98C113.182 14.308 108.575 9.71919 102.903 9.73036C97.2316 9.74153 92.6432 14.3487 92.6539 20.02ZM96.2564 20.0129C96.2538 18.6943 96.6422 17.4046 97.3726 16.3069C98.103 15.2091 99.1425 14.3526 100.36 13.8456C101.577 13.3386 102.917 13.2039 104.211 13.4586C105.504 13.7132 106.694 14.3458 107.628 15.2763C108.562 16.2068 109.199 17.3934 109.459 18.6861C109.719 19.9788 109.589 21.3195 109.087 22.5386C108.585 23.7578 107.733 24.8007 106.638 25.5354C105.543 26.2702 104.255 26.6637 102.936 26.6664C102.061 26.6682 101.194 26.4976 100.384 26.1642C99.5745 25.8308 98.8385 25.3412 98.2182 24.7233C97.5979 24.1055 97.1053 23.3715 96.7687 22.5632C96.4321 21.755 96.258 20.8884 96.2564 20.0129Z" fill="#212121"/>
</g>
<g clip-path="url(#clip2_0_40)">
<path d="M186.721 0.0333333C188.905 0 191.071 0.0166667 193.238 0C193.371 2.55 194.288 5.15 196.155 6.95C198.021 8.8 200.655 9.65 203.221 9.93333V16.65C200.821 16.5667 198.405 16.0667 196.221 15.0333C195.271 14.6 194.388 14.05 193.521 13.4833C193.505 18.35 193.538 23.2167 193.488 28.0667C193.355 30.4 192.588 32.7167 191.238 34.6333C189.055 37.8333 185.271 39.9167 181.388 39.9833C179.005 40.1167 176.621 39.4667 174.588 38.2667C171.221 36.2833 168.855 32.65 168.505 28.75C168.471 27.9167 168.455 27.0833 168.488 26.2667C168.788 23.1 170.355 20.0667 172.788 18C175.555 15.6 179.421 14.45 183.038 15.1333C183.071 17.6 182.971 20.0667 182.971 22.5333C181.321 22 179.388 22.15 177.938 23.15C176.888 23.8333 176.088 24.8833 175.671 26.0667C175.321 26.9167 175.421 27.85 175.438 28.75C175.838 31.4833 178.471 33.7833 181.271 33.5333C183.138 33.5167 184.921 32.4333 185.888 30.85C186.205 30.3 186.555 29.7333 186.571 29.0833C186.738 26.1 186.671 23.1333 186.688 20.15C186.705 13.4333 186.671 6.73333 186.721 0.0333333Z" fill="#212121"/>
</g>
<defs>
<clipPath id="clip0_0_40">
<rect width="40" height="40" fill="white"/>
</clipPath>
<clipPath id="clip1_0_40">
<rect width="40" height="40" fill="white" transform="translate(82.9231)"/>
</clipPath>
<clipPath id="clip2_0_40">
<rect width="40" height="40" fill="white" transform="translate(165.846)"/>
</clipPath>
</defs>
</svg>
