<svg width="20" height="20" viewBox="0 0 20 20" fill="none" xmlns="http://www.w3.org/2000/svg">
<g clip-path="url(#clip0_0_29)">
<rect x="1.4231" y="2" width="18" height="16" fill="white"/>
<path d="M18.4375 0H1.5625C0.6995 0 0 0.6995 0 1.5625V18.4375C0 19.3005 0.6995 20 1.5625 20H18.4375C19.3005 20 20 19.3005 20 18.4375V1.5625C20 0.6995 19.3005 0 18.4375 0ZM10 15.625C9.5075 15.625 9.02525 15.5906 8.55692 15.5243C8.08808 15.8547 5.37942 17.7573 5.12375 17.793C5.12375 17.793 5.01892 17.8337 4.92975 17.7812C4.84058 17.7287 4.85675 17.5911 4.85675 17.5911C4.88358 17.4079 5.55892 15.0758 5.68342 14.6467C3.39575 13.5133 1.875 11.5062 1.875 9.21875C1.875 5.68067 5.51267 2.8125 10 2.8125C14.4873 2.8125 18.125 5.68067 18.125 9.21875C18.125 12.7568 14.4873 15.625 10 15.625ZM6.708 8.22267H5.97658V11.0074C5.97658 11.2543 5.76633 11.4551 5.50783 11.4551C5.24933 11.4551 5.03908 11.2543 5.03908 11.0074V8.22267H4.30767C4.054 8.22267 3.84767 8.01675 3.84767 7.76367C3.84767 7.51058 4.05408 7.30467 4.30767 7.30467H6.708C6.96167 7.30467 7.168 7.51058 7.168 7.76367C7.168 8.01675 6.96158 8.22267 6.708 8.22267ZM15.8646 10.6865C15.9018 10.7355 15.929 10.7915 15.9444 10.8511C15.9599 10.9107 15.9633 10.9728 15.9546 11.0338C15.9462 11.0948 15.9258 11.1535 15.8946 11.2066C15.8634 11.2596 15.8219 11.306 15.7727 11.3429C15.6916 11.4045 15.5925 11.4377 15.4907 11.4375C15.4181 11.4378 15.3464 11.4212 15.2814 11.3888C15.2164 11.3564 15.1599 11.3093 15.1163 11.2512L14.017 9.79458L13.8543 9.95725V10.98C13.8542 11.1043 13.8047 11.2235 13.7168 11.3114C13.6289 11.3994 13.5097 11.4488 13.3854 11.449C13.2611 11.4489 13.142 11.3995 13.0541 11.3116C12.9662 11.2237 12.9168 11.1045 12.9167 10.9802V7.77342C12.9167 7.51492 13.1269 7.30467 13.3854 7.30467C13.6439 7.30467 13.8542 7.51492 13.8542 7.77342V8.78092L15.162 7.47308C15.2292 7.40583 15.3217 7.36875 15.422 7.36875C15.539 7.36875 15.6565 7.41925 15.7446 7.50717C15.8267 7.58917 15.8757 7.69475 15.8824 7.80433C15.8893 7.91492 15.8524 8.01617 15.779 8.08975L14.7108 9.15783L15.8646 10.6865ZM8.90608 7.76792C8.82692 7.543 8.587 7.31167 8.28083 7.30483C7.97558 7.31175 7.73567 7.543 7.65667 7.76742L6.53542 10.7187C6.39308 11.1607 6.51733 11.3247 6.6465 11.3843C6.74002 11.4271 6.84167 11.4492 6.9445 11.449C7.14 11.449 7.28942 11.3697 7.33433 11.2422L7.56658 10.6342L8.99592 10.6342L9.228 11.2419C9.27308 11.3696 9.42258 11.4489 9.61808 11.4489C9.7209 11.449 9.82253 11.427 9.91608 11.3843C10.0453 11.3249 10.1695 11.1609 10.0268 10.7178L8.90608 7.76792ZM7.81308 9.804L8.28125 8.47392L8.74942 9.804H7.81308ZM12.7344 10.957C12.7344 11.1939 12.5329 11.3867 12.2852 11.3867H10.7812C10.5335 11.3867 10.332 11.1938 10.332 10.957V7.77342C10.332 7.51492 10.5467 7.30467 10.8105 7.30467C11.0743 7.30467 11.289 7.51492 11.289 7.77342V10.5273H12.2851C12.5329 10.5273 12.7344 10.7202 12.7344 10.957Z" fill="black"/>
</g>
<defs>
<clipPath id="clip0_0_29">
<rect width="20" height="20" fill="white"/>
</clipPath>
</defs>
</svg>
