<svg width="20" height="20" viewBox="0 0 20 20" fill="none" xmlns="http://www.w3.org/2000/svg">
<g clip-path="url(#clip0_0_23)">
<path d="M17.5 0H2.5C1.11929 0 0 1.11929 0 2.5V17.5C0 18.8807 1.11929 20 2.5 20H17.5C18.8807 20 20 18.8807 20 17.5V2.5C20 1.11929 18.8807 0 17.5 0Z" fill="#212121"/>
<path fill-rule="evenodd" clip-rule="evenodd" d="M16.4811 13.4944C16.0046 13.1108 15.4954 12.7665 14.9942 12.4148C13.9946 11.7127 13.0803 11.6582 12.3344 12.7877C11.9155 13.4218 11.3292 13.4496 10.716 13.1714C9.0258 12.405 7.7206 11.2241 6.95607 9.50616C6.61787 8.74608 6.62232 8.06464 7.41361 7.52706C7.83255 7.24276 8.25462 6.90636 8.22087 6.28515C8.17681 5.47515 6.21013 2.76823 5.43349 2.48253C5.11212 2.36429 4.79209 2.37198 4.46513 2.48187C2.64404 3.09429 1.88974 4.59198 2.61212 6.36534C4.7672 11.656 8.55978 15.3392 13.7805 17.5873C14.0781 17.7153 14.4088 17.7665 14.5762 17.8124C15.7648 17.8244 17.1572 16.6792 17.5593 15.5427C17.9465 14.4494 17.1283 14.0154 16.4811 13.4944ZM10.6274 3.02495C14.444 3.61187 16.2042 5.42671 16.6902 9.27085C16.7353 9.62593 16.6031 10.1602 17.1097 10.1701C17.6391 10.1802 17.5115 9.65378 17.516 9.29835C17.5608 5.67788 14.4039 2.32155 10.7377 2.1978C10.4611 2.23761 9.88877 2.00706 9.85306 2.62702C9.82927 3.04499 10.3111 2.97632 10.6274 3.02495Z" fill="#F6F6F6"/>
<path fill-rule="evenodd" clip-rule="evenodd" d="M11.3739 4.07895C11.0068 4.03473 10.5222 3.86176 10.4364 4.37114C10.3468 4.90578 10.887 4.85149 11.234 4.92918C13.5913 5.45602 14.4121 6.31399 14.8002 8.65227C14.8569 8.99317 14.7443 9.52375 15.3236 9.43582C15.753 9.37043 15.5979 8.91563 15.6338 8.64996C15.6528 6.40504 13.7292 4.36176 11.3739 4.07895Z" fill="#F6F6F6"/>
<path fill-rule="evenodd" clip-rule="evenodd" d="M11.5903 5.9147C11.3453 5.92076 11.1048 5.94728 11.0147 6.20916C10.8794 6.60056 11.164 6.69388 11.4537 6.74041C12.4206 6.89564 12.9296 7.46584 13.0262 8.43013C13.0523 8.69185 13.2183 8.90392 13.4712 8.87408C13.8215 8.83228 13.8532 8.52045 13.8424 8.22431C13.8598 7.14095 12.6353 5.88877 11.5903 5.9147Z" fill="#F6F6F6"/>
</g>
<defs>
<clipPath id="clip0_0_23">
<rect width="20" height="20" fill="white"/>
</clipPath>
</defs>
</svg>
