<svg width="20" height="20" viewBox="0 0 20 20" fill="none" xmlns="http://www.w3.org/2000/svg">
<g clip-path="url(#clip0_0_11)">
<path fill-rule="evenodd" clip-rule="evenodd" d="M9.07567 0.0666504H10.8485C13.2833 0.0666504 14.7061 0.424264 15.9692 1.10145C17.2322 1.77862 18.229 2.76777 18.8985 4.03084C19.5757 5.2939 19.9333 6.71673 19.9333 9.15153V10.9168C19.9333 13.3516 19.5757 14.7744 18.8985 16.0375C18.2214 17.3005 17.2322 18.2973 15.9692 18.9669C14.7061 19.644 13.2833 20.0017 10.8485 20.0017H9.08326C6.64846 20.0017 5.22562 19.644 3.96256 18.9669C2.69952 18.2897 1.70277 17.3005 1.0332 16.0375C0.356023 14.7744 -0.00158691 13.3516 -0.00158691 10.9168V9.15153C-0.00158691 6.71673 0.356023 5.2939 1.0332 4.03084C1.71038 2.76777 2.69952 1.77102 3.96256 1.10145C5.21803 0.424264 6.64846 0.0666504 9.07567 0.0666504Z" fill="#212121"/>
<path opacity="0.12" fill-rule="evenodd" clip-rule="evenodd" d="M19.9332 10.6256V10.9169C19.9332 13.3517 19.5757 14.7746 18.8985 16.0376C18.2213 17.3007 17.2321 18.2974 15.9691 18.967C14.706 19.6442 13.2832 20.0018 10.8484 20.0018H9.08318C7.09088 20.0018 5.77613 19.7624 4.67206 19.3043L2.85187 17.43L19.9332 10.6256Z" fill="#212121"/>
<path fill-rule="evenodd" clip-rule="evenodd" d="M3.054 17.4952C3.98633 17.5982 5.15197 17.3324 5.97962 16.9306C9.57356 18.917 15.1915 18.8222 18.5921 16.6459C18.724 16.448 18.8473 16.2423 18.9616 16.029C19.6413 14.7613 20.0002 13.3333 20.0002 10.8897V9.118C20.0002 6.67429 19.6413 5.24628 18.9616 3.97862C18.2896 2.71096 17.2892 1.71821 16.0216 1.03856C14.7539 0.358916 13.3259 0 10.8822 0H9.10292C7.02165 0 5.67057 0.261992 4.53539 0.762163C4.47334 0.817728 4.41246 0.874245 4.35285 0.931708C1.02243 4.1422 0.769261 11.1015 3.59335 14.8819C3.5965 14.8875 3.59999 14.8931 3.60382 14.8988C4.03911 15.5402 3.61909 16.6628 2.96236 17.3195C2.85545 17.4188 2.89363 17.4799 3.054 17.4952Z" fill="#F6F6F6"/>
<path d="M8.18509 6.82324H4.28182V7.66021H6.9905L4.31982 10.97C4.23614 11.0918 4.17529 11.2059 4.17529 11.4646V11.6776H7.85789C8.04051 11.6776 8.19271 11.5255 8.19271 11.3428V10.8939H5.34704L7.85789 7.74389C7.89594 7.69826 7.96442 7.61457 7.99488 7.57652L8.01009 7.55369C8.15466 7.34064 8.18509 7.15802 8.18509 6.93739V6.82324Z" fill="#212121"/>
<path d="M13.1533 11.6776H13.7088V6.82324H12.8718V11.3961C12.8718 11.5483 12.9936 11.6776 13.1533 11.6776Z" fill="#212121"/>
<path d="M10.2926 7.90381C9.24256 7.90381 8.39038 8.75599 8.39038 9.806C8.39038 10.856 9.24256 11.7082 10.2926 11.7082C11.3426 11.7082 12.1948 10.856 12.1948 9.806C12.2024 8.75599 11.3502 7.90381 10.2926 7.90381ZM10.2926 10.9245C9.67627 10.9245 9.17409 10.4223 9.17409 9.806C9.17409 9.1897 9.67627 8.68751 10.2926 8.68751C10.9089 8.68751 11.4111 9.1897 11.4111 9.806C11.4111 10.4223 10.9165 10.9245 10.2926 10.9245Z" fill="#212121"/>
<path d="M16.1817 7.87329C15.124 7.87329 14.2643 8.73309 14.2643 9.79069C14.2643 10.8483 15.124 11.7081 16.1817 11.7081C17.2393 11.7081 18.0991 10.8483 18.0991 9.79069C18.0991 8.73309 17.2393 7.87329 16.1817 7.87329ZM16.1817 10.9244C15.5578 10.9244 15.0556 10.4222 15.0556 9.79832C15.0556 9.17439 15.5578 8.67221 16.1817 8.67221C16.8056 8.67221 17.3078 9.17439 17.3078 9.79832C17.3078 10.4222 16.8056 10.9244 16.1817 10.9244Z" fill="#212121"/>
<path d="M11.7545 11.6774H12.2034V8.01001H11.4197V11.3503C11.4197 11.5253 11.5718 11.6774 11.7545 11.6774Z" fill="#212121"/>
</g>
<defs>
<clipPath id="clip0_0_11">
<rect width="20" height="20" fill="white"/>
</clipPath>
</defs>
</svg>
